<svg xmlns="http://www.w3.org/2000/svg" xmlns:xlink="http://www.w3.org/1999/xlink" xml:space="preserve" style="shape-rendering:geometricPrecision;text-rendering:geometricPrecision;image-rendering:optimizeQuality;" viewBox="0 0 0.268433 0.3263725" x="0px" y="0px" fill-rule="evenodd" clip-rule="evenodd">
  <defs>
    <style type="text/css">
      .fil0 {fill:white;fill-rule:nonzero}
    </style>
  </defs>
  <g>
    <path class="fil0" d="M0.176752 0.236417l-0.0425748 0.024563 -0.042248 -0.024378 -0.0424528 0.0244961 -0.0494764-0.0285472 0-0.0570906 0.0423543-0.0244409 0-0.0490276 0.0420866-0.0242874 0-0.0491575 0.0494764-0.0285472 0.0494724 0.0285472 0 0.0487008 0.0425315 0.0245433 0 0.048811 0.0425118 0.0245315 0 0.0570906-0.0494724 0.0285472-0.0422087-0.0243543zm-0.084937-0.0651772l0.0351575-0.0202992 0-0.0407638-0.0352087-0.020315c-0.0117323,0.00677559 -0.0234291,0.0135433 -0.0351614,0.020315l0 0.0407165c0.011752,0.00678346 0.0234646,0.013563 0.0352126,0.0203465zm0.00687795-0.0938386l0.0352717 0.0203543 0.0351772-0.0203071 0-0.0407126c-0.0117559,-0.0067874 -0.0234685,-0.0135669 -0.0352244,-0.0203543-0.0117559,0.0067874-0.0234724,0.0135669-0.0352244,0.0203543l0 0.0406654zm0.0426102 0.0325276l0 0.040811c0.0117283,0.00676772 0.0234173,0.0135354 0.0351457,0.0203071 0.011752,-0.0067874 0.0234685,-0.0135709 0.0352244,-0.0203583l0-0.0407126c-0.011748,-0.00678346 -0.0234567,-0.0135591 -0.0352087,-0.0203425l-0.0351614 0.0202953zm-0.00711024 0.0532559l-0.0352402 0.0203465 0 0.0407126c0.0117559,0.0067874 0.0234724,0.0135709 0.0352244,0.0203543 0.0117559,-0.00678346 0.0234724,-0.0135669 0.0352283,-0.0203543l0-0.0407126c-0.011752,-0.00678346 -0.0234646,-0.013563 -0.0352126,-0.0203465zm-0.0847165 0.0815315c0.011752,-0.0067874 0.0234685,-0.0135669 0.0352244,-0.0203543l0-0.0407126c-0.0117559,-0.0067874 -0.0234724,-0.0135669 -0.0352244,-0.0203543-0.0117559,0.0067874-0.0234724,0.0135669-0.0352283,0.0203543l0 0.0407126c0.0117559,0.0067874 0.0234724,0.0135669 0.0352283,0.0203543zm0.169484-0.081748c-0.0117559,0.0067874 -0.0234724,0.0135669 -0.0352244,0.0203543l0 0.0407126c0.011752,0.0067874 0.0234685,0.0135669 0.0352244,0.0203543 0.0117559,-0.0067874 0.0234685,-0.0135669 0.0352244,-0.0203543l0-0.0407126c-0.0117559,-0.0067874 -0.0234685,-0.0135669 -0.0352244,-0.0203543z"/>
  </g>
  <text x="0" y="15.261098" fill="#FFFFFF" font-size="5px" font-weight="bold" font-family="'Helvetica Neue', Helvetica, Arial-Unicode, Arial, Sans-serif">Created by Laili Hidayati</text>
  <text x="0" y="20.261098" fill="#FFFFFF" font-size="5px" font-weight="bold" font-family="'Helvetica Neue', Helvetica, Arial-Unicode, Arial, Sans-serif">from the Noun Project</text>
</svg>
